<svg width="47" height="38" viewBox="0 0 47 38" fill="none" xmlns="http://www.w3.org/2000/svg">
<path d="M44.9845 12.0288L34.5348 2.04213C33.6726 1.21812 32.7981 0.800293 31.9356 0.800293C30.7513 0.800293 29.3685 1.6611 29.3685 4.08723V7.48713C21.7765 7.80336 14.6866 10.779 9.27905 15.9467C3.55161 21.42 0.397025 28.6973 0.396484 36.438C0.396484 36.9941 0.768673 37.4881 1.32064 37.6641C1.46157 37.709 1.60583 37.7306 1.74873 37.7306C2.16591 37.7306 2.56975 37.5456 2.83013 37.2144C9.21531 29.0917 18.8284 24.2915 29.3685 23.9125V27.2601C29.3685 29.686 30.7513 30.547 31.9355 30.547C32.7979 30.547 33.6727 30.1292 34.5348 29.3053L44.9844 19.3184C46.0001 18.3481 46.5594 17.0537 46.5594 15.6736C46.5594 14.2938 46.0001 12.9993 44.9845 12.0288Z" fill="url(#paint0_linear_568_18159)"/>
<defs>
<linearGradient id="paint0_linear_568_18159" x1="-32.7695" y1="28.3157" x2="102.403" y2="16.217" gradientUnits="userSpaceOnUse">
<stop stop-color="#E7B051"/>
<stop offset="0.27" stop-color="#A66C00"/>
<stop offset="0.51" stop-color="#F3B233"/>
<stop offset="0.7" stop-color="#BB7E03"/>
<stop offset="1" stop-color="#E7BA57"/>
</linearGradient>
</defs>
</svg>
