<svg width="23" height="29" viewBox="0 0 23 29" fill="none" xmlns="http://www.w3.org/2000/svg">
<path d="M22.7135 23.0055C22.8444 22.9169 22.922 22.7692 22.922 22.6166V0.6867C22.922 0.43559 22.7135 0.223877 22.4663 0.223877H3.38017C1.76096 0.223877 0.442353 1.56309 0.442353 3.2076C0.442353 3.2076 0.4375 25.1227 0.4375 25.1375C0.4375 26.7869 1.76096 28.131 3.38017 28.131H5.27568V28.3132C5.27568 28.4855 5.37264 28.6431 5.52293 28.7219C5.67321 28.8056 5.85258 28.8006 5.99319 28.7022L7.1082 27.9439L8.23291 28.7022C8.31046 28.7563 8.39772 28.781 8.48498 28.781C8.56256 28.781 8.63526 28.7612 8.70314 28.7219C8.84857 28.6431 8.94068 28.4855 8.94068 28.3132V28.131H22.4663C22.665 28.131 22.8347 27.9932 22.8929 27.8012C22.9608 27.6091 22.8832 27.3974 22.7184 27.2793C22.6941 27.2595 22.0494 26.7721 22.0494 25.1375C22.0494 23.5127 22.699 23.0154 22.7135 23.0055ZM7.55905 8.68761H10.5357C10.7877 8.68761 10.9914 8.48079 10.9914 8.22478V5.20166H12.3681V8.22478C12.3681 8.48079 12.5718 8.68761 12.8238 8.68761H15.8005V10.0859H12.8238C12.5718 10.0859 12.3681 10.2927 12.3681 10.5487V18.2247H10.9914V10.5487C10.9914 10.2927 10.7877 10.0859 10.5357 10.0859H7.55905V8.68761ZM21.5404 27.2005H8.94068V25.6052H19.0485C19.3006 25.6052 19.5042 25.3935 19.5042 25.1375C19.5042 24.8814 19.3006 24.6746 19.0485 24.6746H4.00554C3.74861 24.6746 3.54498 24.8814 3.54498 25.1375C3.54498 25.3935 3.74861 25.6052 4.00554 25.6052H5.27568V27.2005H3.38017C2.26516 27.2005 1.35376 26.2748 1.35376 25.1375C1.35376 24.5909 1.56221 24.069 1.95004 23.685C2.33301 23.2911 2.84206 23.0794 3.38017 23.0794H21.5452C21.3174 23.5323 21.1331 24.1921 21.1331 25.1375C21.1331 26.0828 21.3174 26.7426 21.5404 27.2005Z" fill="url(#paint0_linear_836_6786)"/>
<defs>
<linearGradient id="paint0_linear_836_6786" x1="3.81015" y1="43.0595" x2="22.6683" y2="13.5888" gradientUnits="userSpaceOnUse">
<stop stop-color="#E7B051"/>
<stop offset="0.27" stop-color="#A66C00"/>
<stop offset="0.51" stop-color="#F3B233"/>
<stop offset="0.7" stop-color="#BB7E03"/>
<stop offset="1" stop-color="#E7BA57"/>
</linearGradient>
</defs>
</svg>
