<svg width="39" height="38" viewBox="0 0 39 38" fill="none" xmlns="http://www.w3.org/2000/svg">
<circle cx="18.0194" cy="4.88468" r="4.04386" fill="url(#paint0_linear_836_6803)"/>
<path fill-rule="evenodd" clip-rule="evenodd" d="M9.1983 13.2068C8.03451 13.9849 6.45799 13.6669 5.67987 12.5031C4.90176 11.3393 5.21977 9.76282 6.38355 8.98471L16.5329 2.21851C17.3854 1.65015 18.4951 1.65015 19.3476 2.21851L29.4969 8.98471C30.6607 9.76282 30.9787 11.3393 30.2006 12.5031C29.4225 13.6669 27.8459 13.9849 26.6822 13.2068L17.9402 7.37774L9.1983 13.2068Z" fill="url(#paint1_linear_836_6803)"/>
<path d="M4.18114 32.219V29.1184H7.66657C8.23098 29.1184 8.63046 29.0194 8.86502 28.8215C9.10692 28.6163 9.22786 28.3011 9.22786 27.876V27.755C9.22786 27.3299 9.10692 27.0183 8.86502 26.8204C8.63046 26.6152 8.23098 26.5126 7.66657 26.5126H4.10418V23.6649H7.54562C8.08804 23.6649 8.4692 23.5622 8.6891 23.357C8.91634 23.1518 9.02995 22.8476 9.02995 22.4444V22.3675C9.02995 21.9643 8.91634 21.6674 8.6891 21.4769C8.4692 21.2789 8.08804 21.18 7.54562 21.18H4.10418V18.1674H7.98542C9.74463 18.1674 11.0091 18.4459 11.7787 19.003C12.5557 19.5601 12.9442 20.3957 12.9442 21.5098V21.6638C12.9442 22.4921 12.7133 23.1371 12.2515 23.5989C11.797 24.0534 11.075 24.3026 10.0855 24.3466V24.4675C11.1703 24.5848 11.962 24.9293 12.4604 25.501C12.9662 26.0728 13.2191 26.8681 13.2191 27.887V28.1398C13.2191 29.5106 12.8159 30.5331 12.0096 31.2075C11.2033 31.8818 9.92421 32.219 8.17234 32.219H4.18114ZM1.32244 32.219V18.1674H5.11572V32.219H1.32244ZM20.679 32.219L21.0858 18.1674H26.5174L28.5295 25.9958H28.6724L30.6845 18.1674H36.105L36.5118 32.219H32.6636L32.5976 28.0519L32.5206 22.6643H32.3557L30.3106 30.5587H26.8802L24.8241 22.6643H24.6482L24.5822 28.0629L24.5273 32.219H20.679Z" fill="url(#paint2_linear_836_6803)"/>
<defs>
<linearGradient id="paint0_linear_836_6803" x1="15.1887" y1="12.9724" x2="21.3138" y2="12.8805" gradientUnits="userSpaceOnUse">
<stop stop-color="#E7B051"/>
<stop offset="0.27" stop-color="#A66C00"/>
<stop offset="0.51" stop-color="#F3B233"/>
<stop offset="0.7" stop-color="#BB7E03"/>
<stop offset="1" stop-color="#E7BA57"/>
</linearGradient>
<linearGradient id="paint1_linear_836_6803" x1="9.05963" y1="19.5534" x2="28.2599" y2="18.9363" gradientUnits="userSpaceOnUse">
<stop stop-color="#E7B051"/>
<stop offset="0.27" stop-color="#A66C00"/>
<stop offset="0.51" stop-color="#F3B233"/>
<stop offset="0.7" stop-color="#BB7E03"/>
<stop offset="1" stop-color="#E7BA57"/>
</linearGradient>
<linearGradient id="paint2_linear_836_6803" x1="5.87895" y1="48.219" x2="34.6446" y2="47.4737" gradientUnits="userSpaceOnUse">
<stop stop-color="#E7B051"/>
<stop offset="0.27" stop-color="#A66C00"/>
<stop offset="0.51" stop-color="#F3B233"/>
<stop offset="0.7" stop-color="#BB7E03"/>
<stop offset="1" stop-color="#E7BA57"/>
</linearGradient>
</defs>
</svg>
