<svg width="27" height="30" viewBox="0 0 27 30" fill="none" xmlns="http://www.w3.org/2000/svg">
<path d="M26.7533 21.4679V29.8012C25.8951 29.7953 24.2984 29.4927 23.0662 27.5725C22.2993 26.3772 20.4405 26.2391 19.109 26.2391L18.8357 26.2398C17.2161 26.2398 15.6293 25.4826 14.5798 24.2551H21.921C22.1782 24.2551 22.3868 24.0341 22.3868 23.7617V15.5041C24.199 15.6949 24.3617 17.1302 24.3617 20.9746C24.3617 21.2475 24.5698 21.4679 24.8275 21.4679H26.7533ZM5.35491 24.2551C5.0978 24.2551 4.88913 24.0341 4.88913 23.7617V15.5054C3.08812 15.7021 2.92603 17.1388 2.92603 20.9746C2.92603 21.2475 2.71799 21.4679 2.46026 21.4679H0.534424V29.8012C1.3927 29.7953 2.98938 29.4927 4.22152 27.5725C4.9885 26.3772 6.84726 26.2391 8.17938 26.2391L8.45201 26.2398C10.0717 26.2398 11.6584 25.4826 12.708 24.2551H5.35491ZM11.9801 8.94102V13.9878L13.3657 12.9314C13.447 12.8689 13.5426 12.838 13.6383 12.838C13.7333 12.838 13.8289 12.8689 13.9103 12.9314L15.2958 13.9878V8.94102H11.9801ZM16.2274 8.94102V14.9515C16.2274 15.1364 16.1299 15.3061 15.974 15.3903C15.8187 15.4752 15.6318 15.46 15.4896 15.3515L13.6383 13.9398L11.7864 15.3515C11.7056 15.4133 11.61 15.4449 11.5143 15.4449C11.4417 15.4449 11.369 15.4265 11.3019 15.3903C11.1461 15.3061 11.0486 15.1364 11.0486 14.9515V8.94102H5.82068L5.83248 23.2684H21.4553V8.94102H16.2274ZM11.0848 3.31933C11.0848 1.59906 12.2302 0.199482 13.638 0.199482C15.0458 0.199482 16.1912 1.599 16.1912 3.31933C16.1912 5.03967 15.0459 6.43919 13.638 6.43919C12.2302 6.43912 11.0848 5.0396 11.0848 3.31933ZM12.0163 3.31933C12.0163 4.49552 12.7438 5.45245 13.638 5.45245C14.5321 5.45245 15.2596 4.49552 15.2596 3.31933C15.2596 2.14315 14.5321 1.18621 13.638 1.18621C12.7438 1.18621 12.0163 2.14315 12.0163 3.31933ZM17.6599 5.93477V0.692585C17.6599 0.42005 17.8684 0.199219 18.1257 0.199219H19.5243C21.1027 0.199219 22.3868 1.59887 22.3868 3.31933C22.3868 4.94409 21.2687 6.27973 19.7862 6.4261C19.7718 6.42748 19.7574 6.4282 19.743 6.4282H18.1257C17.8684 6.42813 17.6599 6.2073 17.6599 5.93477ZM18.5915 5.4414H19.7201C20.6947 5.33345 21.4552 4.40573 21.4552 3.31927C21.4552 2.14295 20.589 1.18589 19.5243 1.18589H18.5915V5.4414ZM7.48394 6.43912C8.29228 6.43912 9.0397 5.99943 9.53467 5.23287C9.67986 5.00796 9.62546 4.70096 9.41313 4.54716C9.2008 4.39329 8.91096 4.45092 8.7657 4.67589C8.44711 5.16933 7.9799 5.45239 7.48394 5.45239C6.5668 5.45239 5.82068 4.49545 5.82068 3.31927C5.82068 2.14308 6.56686 1.18615 7.48394 1.18615C7.97984 1.18615 8.44705 1.46914 8.76564 1.96258C8.91084 2.18749 9.20067 2.24511 9.41307 2.09125C9.62534 1.93738 9.67974 1.63038 9.53454 1.40547C9.03958 0.639039 8.29222 0.199416 7.48394 0.199416C6.05314 0.199416 4.88913 1.59893 4.88913 3.31927C4.88913 5.0396 6.0532 6.43912 7.48394 6.43912Z" fill="url(#paint0_linear_836_5725)"/>
<defs>
<linearGradient id="paint0_linear_836_5725" x1="4.46726" y1="44.6022" x2="24.3246" y2="44.3384" gradientUnits="userSpaceOnUse">
<stop stop-color="#E7B051"/>
<stop offset="0.27" stop-color="#A66C00"/>
<stop offset="0.51" stop-color="#F3B233"/>
<stop offset="0.7" stop-color="#BB7E03"/>
<stop offset="1" stop-color="#E7BA57"/>
</linearGradient>
</defs>
</svg>
