<svg width="29" height="28" viewBox="0 0 29 28" fill="none" xmlns="http://www.w3.org/2000/svg">
<path fill-rule="evenodd" clip-rule="evenodd" d="M26.1181 7.80958L18.6937 1.57503C16.1928 -0.52501 12.6675 -0.52501 10.1666 1.57503L2.74211 7.80958C1.40448 8.93283 0.645508 10.6359 0.645508 12.4128V22.1353C0.645508 25.2924 3.03597 28 6.15935 28H8.91628C10.4389 28 11.6732 26.7464 11.6732 25.2V20.6469C11.6732 18.8724 12.9856 17.5822 14.4301 17.5822C15.8746 17.5822 17.187 18.8724 17.187 20.6469V25.2C17.187 26.7464 18.4213 28 19.944 28H22.7009C25.8243 28 28.2147 25.2924 28.2147 22.1353V12.4128C28.2147 10.6359 27.4558 8.93283 26.1181 7.80958Z" fill="url(#paint0_linear_2200_4287)"/>
<defs>
<linearGradient id="paint0_linear_2200_4287" x1="14.4301" y1="0" x2="14.4301" y2="28" gradientUnits="userSpaceOnUse">
<stop stop-color="#E7B051"/>
<stop offset="0.27" stop-color="#ECB349"/>
<stop offset="1" stop-color="#E7BA57"/>
</linearGradient>
</defs>
</svg>
