<svg width="31" height="31" viewBox="0 0 31 31" fill="none" xmlns="http://www.w3.org/2000/svg">
<path d="M15.8855 23.781C17.2636 23.0216 23.359 20.093 28.5721 24.3035V10.8369C26.6397 8.89805 23.9029 7.96152 21.1716 8.30448V8.99743C21.1716 9.57467 20.6983 10.0426 20.1144 10.0426H18V15.2685C18 15.8457 17.5266 16.3137 16.9428 16.3137H16.4141V22.0622C16.4141 22.3508 16.1775 22.5847 15.8855 22.5847C15.5936 22.5847 15.3569 22.3508 15.3569 22.0622V16.3137H14.8283C14.2444 16.3137 13.7711 15.8457 13.7711 15.2685V10.0426H11.6567C11.0728 10.0426 10.5995 9.57467 10.5995 8.99743V8.30396C7.86915 7.9601 5.13276 8.89437 3.19897 10.8307V24.3014C8.41315 20.0941 14.5075 23.0216 15.8855 23.781ZM21.3788 11.0878C21.5248 10.8379 21.8481 10.7522 22.1009 10.8965L23.4753 11.6804C23.6402 11.7731 23.7422 11.946 23.7426 12.1335C23.743 12.3211 23.6418 12.4945 23.4773 12.5879C23.3128 12.6813 23.1103 12.6804 22.9467 12.5855L21.5723 11.8016C21.3195 11.6573 21.2329 11.3377 21.3788 11.0878ZM19.9632 12.7559C20.0707 12.6668 20.2095 12.6236 20.3492 12.6358C20.4889 12.6479 20.618 12.7144 20.708 12.8207L21.7272 14.0226C21.8559 14.1648 21.8961 14.365 21.832 14.5449C21.7679 14.7249 21.6096 14.856 21.4192 14.887C21.2288 14.9179 21.0364 14.8438 20.9174 14.6937L19.8977 13.4917C19.7104 13.2706 19.7397 12.9413 19.9632 12.7559ZM11.0631 12.8207C11.1831 12.6737 11.3741 12.6023 11.5625 12.6338C11.7509 12.6654 11.9074 12.795 11.9719 12.9728C12.0363 13.1507 11.9987 13.349 11.8734 13.4917L10.8537 14.6937C10.7338 14.8412 10.5425 14.9131 10.3537 14.8816C10.1648 14.85 10.008 14.72 9.94377 14.5417C9.8795 14.3633 9.9178 14.1646 10.0439 14.0221L11.0631 12.8207ZM8.10286 12.3943C8.03281 12.2742 8.0139 12.1315 8.05028 11.9976C8.08666 11.8637 8.17536 11.7496 8.29686 11.6804L9.67124 10.8965C9.83488 10.8017 10.0374 10.8008 10.2019 10.8942C10.3663 10.9876 10.4676 11.161 10.4672 11.3485C10.4668 11.536 10.3647 11.709 10.1998 11.8016L8.82547 12.5855C8.70401 12.655 8.5596 12.6739 8.42406 12.638C8.28852 12.6021 8.17296 12.5144 8.10286 12.3943Z" fill="url(#paint0_linear_836_5703)"/>
<path d="M15.357 15H16.4142C16.7061 15 16.9428 14.759 16.9428 14.4618V9.07958C16.9428 8.78233 17.1795 8.54136 17.4714 8.54136H19.5858C19.8778 8.54136 20.1144 8.30039 20.1144 8.00314V6.92671C20.1144 6.62946 19.8778 6.38849 19.5858 6.38849H17.4714C17.1795 6.38849 16.9428 6.14752 16.9428 5.85027V3.6974C16.9428 3.40015 16.7061 3.15918 16.4142 3.15918H15.357C15.065 3.15918 14.8284 3.40015 14.8284 3.6974V5.85027C14.8284 6.14752 14.5917 6.38849 14.2998 6.38849H12.1853C11.8934 6.38849 11.6567 6.62946 11.6567 6.92671V8.00314C11.6567 8.30039 11.8934 8.54136 12.1853 8.54136H14.2998C14.5917 8.54136 14.8284 8.78233 14.8284 9.07958V14.4618C14.8284 14.759 15.065 15 15.357 15Z" fill="url(#paint1_linear_836_5703)"/>
<path d="M3.19897 26.0486L3.94358 26.8406C8.64107 22.2923 14.462 26.112 14.7087 26.2749L15.0398 26.5046V25.1763C13.7804 24.3979 8.0245 21.2847 3.19897 26.0486Z" fill="url(#paint2_linear_836_5703)"/>
<path d="M1.19023 28.5995H11.7624V28.0651C11.7624 27.7661 11.999 27.5237 12.291 27.5237C12.5829 27.5237 12.8196 27.7661 12.8196 28.0651V29.1409C12.8196 29.574 13.8736 30.2237 15.4626 30.2237C17.0516 30.2237 18.1056 29.574 18.1056 29.1409V28.0581C18.1056 27.759 18.3423 27.5166 18.6343 27.5166C18.9262 27.5166 19.1629 27.759 19.1629 28.0581V28.5995H29.735C30.0269 28.5995 30.2636 28.3571 30.2636 28.0581V12.2328C30.2628 11.9587 30.0643 11.7274 29.799 11.6914L29.2064 11.6167C29.2064 11.7217 29.2064 25.7062 29.2064 25.645C29.2052 25.7889 29.1482 25.9265 29.0478 26.0272C28.9421 26.1355 29.3771 25.6937 27.9108 27.1799C27.5065 27.5834 26.8652 27.5938 26.4487 27.2037C22.2198 23.3002 17.1071 26.6401 16.8914 26.7841L16.0325 27.3499C15.684 27.5796 15.2365 27.5796 14.888 27.3499L14.0354 26.7863C13.8239 26.6504 8.61134 23.4009 4.47393 27.2053C4.05675 27.5931 3.41722 27.5822 3.01286 27.1804L1.87742 26.0278C1.77733 25.9264 1.72034 25.7886 1.71883 25.6445V11.6167L1.12362 11.6925C0.859137 11.7293 0.661833 11.9605 0.661621 12.2339V28.0581C0.661621 28.3571 0.898286 28.5995 1.19023 28.5995Z" fill="url(#paint3_linear_836_5703)"/>
<path d="M15.8855 26.515L16.2336 26.2857C16.4895 26.1137 22.6306 22.124 27.7672 26.8406L28.5721 26.0444C23.4484 21.2796 17.2111 24.4101 15.8855 25.1673V26.515Z" fill="url(#paint4_linear_836_5703)"/>
<path d="M21.7887 4.78448L23.2193 4.06091C23.3909 3.97535 23.4971 3.81572 23.4975 3.64262C23.498 3.46952 23.3926 3.30949 23.2213 3.22327C23.0501 3.13705 22.8394 3.13787 22.669 3.22542L21.2385 3.94899C21.0668 4.03455 20.9606 4.19418 20.9602 4.36728C20.9598 4.54038 21.0652 4.70041 21.2364 4.78663C21.4076 4.87285 21.6184 4.87203 21.7887 4.78448Z" fill="url(#paint5_linear_836_5703)"/>
<path d="M8.25622 3.22542C8.08589 3.13787 7.87511 3.13705 7.7039 3.22327C7.53269 3.30949 7.4273 3.46952 7.42774 3.64262C7.42817 3.81572 7.53436 3.97535 7.706 4.06091L9.13656 4.78448C9.30689 4.87203 9.51767 4.87285 9.68888 4.78663C9.86009 4.70041 9.96548 4.54038 9.96505 4.36728C9.96461 4.19418 9.85842 4.03455 9.68678 3.94899L8.25622 3.22542Z" fill="url(#paint6_linear_836_5703)"/>
<path d="M20.4035 2.949L21.642 1.59996C21.7985 1.44044 21.8473 1.21573 21.7694 1.01375C21.6914 0.811764 21.4991 0.664611 21.2677 0.629859C21.0363 0.595106 20.8025 0.67828 20.6578 0.846839L19.4187 2.19588C19.1907 2.44418 19.2264 2.81419 19.4983 3.02232C19.7703 3.23045 20.1755 3.1973 20.4035 2.949Z" fill="url(#paint7_linear_836_5703)"/>
<path d="M11.5033 3.02172C11.6847 2.81318 11.7086 2.4427 11.5565 2.19392L10.7287 0.841692C10.6313 0.675687 10.476 0.59482 10.3227 0.630299C10.1695 0.665778 10.0422 0.812055 9.98999 1.01268C9.93781 1.2133 9.96891 1.4369 10.0713 1.59718L10.8987 2.94941C10.9718 3.06886 11.0767 3.14359 11.1901 3.15715C11.3035 3.17072 11.4161 3.122 11.5033 3.02172Z" fill="url(#paint8_linear_836_5703)"/>
<defs>
<linearGradient id="paint0_linear_836_5703" x1="7.00494" y1="32.3384" x2="14.234" y2="9.66783" gradientUnits="userSpaceOnUse">
<stop stop-color="#E7B051"/>
<stop offset="0.27" stop-color="#A66C00"/>
<stop offset="0.51" stop-color="#F3B233"/>
<stop offset="0.7" stop-color="#BB7E03"/>
<stop offset="1" stop-color="#E7BA57"/>
</linearGradient>
<linearGradient id="paint1_linear_836_5703" x1="12.9254" y1="20.9204" x2="21.5916" y2="8.62583" gradientUnits="userSpaceOnUse">
<stop stop-color="#E7B051"/>
<stop offset="0.27" stop-color="#A66C00"/>
<stop offset="0.51" stop-color="#F3B233"/>
<stop offset="0.7" stop-color="#BB7E03"/>
<stop offset="1" stop-color="#E7BA57"/>
</linearGradient>
<linearGradient id="paint2_linear_836_5703" x1="4.97509" y1="28.5321" x2="5.71614" y2="23.3807" gradientUnits="userSpaceOnUse">
<stop stop-color="#E7B051"/>
<stop offset="0.27" stop-color="#A66C00"/>
<stop offset="0.51" stop-color="#F3B233"/>
<stop offset="0.7" stop-color="#BB7E03"/>
<stop offset="1" stop-color="#E7BA57"/>
</linearGradient>
<linearGradient id="paint3_linear_836_5703" x1="5.10192" y1="39.5271" x2="13.421" y2="13.2407" gradientUnits="userSpaceOnUse">
<stop stop-color="#E7B051"/>
<stop offset="0.27" stop-color="#A66C00"/>
<stop offset="0.51" stop-color="#F3B233"/>
<stop offset="0.7" stop-color="#BB7E03"/>
<stop offset="1" stop-color="#E7BA57"/>
</linearGradient>
<linearGradient id="paint4_linear_836_5703" x1="17.7885" y1="28.5321" x2="18.4819" y2="23.3672" gradientUnits="userSpaceOnUse">
<stop stop-color="#E7B051"/>
<stop offset="0.27" stop-color="#A66C00"/>
<stop offset="0.51" stop-color="#F3B233"/>
<stop offset="0.7" stop-color="#BB7E03"/>
<stop offset="1" stop-color="#E7BA57"/>
</linearGradient>
<linearGradient id="paint5_linear_836_5703" x1="21.3408" y1="5.69649" x2="22.1339" y2="3.33368" gradientUnits="userSpaceOnUse">
<stop stop-color="#E7B051"/>
<stop offset="0.27" stop-color="#A66C00"/>
<stop offset="0.51" stop-color="#F3B233"/>
<stop offset="0.7" stop-color="#BB7E03"/>
<stop offset="1" stop-color="#E7BA57"/>
</linearGradient>
<linearGradient id="paint6_linear_836_5703" x1="7.80833" y1="5.69649" x2="8.60142" y2="3.33368" gradientUnits="userSpaceOnUse">
<stop stop-color="#E7B051"/>
<stop offset="0.27" stop-color="#A66C00"/>
<stop offset="0.51" stop-color="#F3B233"/>
<stop offset="0.7" stop-color="#BB7E03"/>
<stop offset="1" stop-color="#E7BA57"/>
</linearGradient>
<linearGradient id="paint7_linear_836_5703" x1="19.6492" y1="4.42804" x2="21.2331" y2="1.28202" gradientUnits="userSpaceOnUse">
<stop stop-color="#E7B051"/>
<stop offset="0.27" stop-color="#A66C00"/>
<stop offset="0.51" stop-color="#F3B233"/>
<stop offset="0.7" stop-color="#BB7E03"/>
<stop offset="1" stop-color="#E7BA57"/>
</linearGradient>
<linearGradient id="paint8_linear_836_5703" x1="10.2188" y1="4.42804" x2="12.1154" y2="1.91683" gradientUnits="userSpaceOnUse">
<stop stop-color="#E7B051"/>
<stop offset="0.27" stop-color="#A66C00"/>
<stop offset="0.51" stop-color="#F3B233"/>
<stop offset="0.7" stop-color="#BB7E03"/>
<stop offset="1" stop-color="#E7BA57"/>
</linearGradient>
</defs>
</svg>
