<svg width="28" height="28" viewBox="0 0 28 28" fill="none" xmlns="http://www.w3.org/2000/svg">
<path d="M26.9064 23.3505L20.6841 17.0425C21.7413 15.3363 22.3549 13.3197 22.3549 11.1555C22.3549 5.03269 17.4584 0.0698242 11.4186 0.0698242C5.37871 0.0698242 0.482666 5.03269 0.482666 11.1555C0.482666 17.2785 5.37848 22.2409 11.4186 22.2409C13.7419 22.2409 15.894 21.5046 17.6648 20.2534L23.8131 26.4864C24.2404 26.919 24.8004 27.1345 25.3598 27.1345C25.9198 27.1345 26.4792 26.919 26.9071 26.4864C27.7609 25.62 27.7609 24.2166 26.9064 23.3505ZM11.4186 18.6493C7.33617 18.6493 4.02642 15.2945 4.02642 11.156C4.02642 7.01742 7.33617 3.66234 11.4186 3.66234C15.5012 3.66234 18.8107 7.01742 18.8107 11.156C18.8107 15.2945 15.5012 18.6493 11.4186 18.6493Z" fill="url(#paint0_linear_836_5734)"/>
<defs>
<linearGradient id="paint0_linear_836_5734" x1="4.54237" y1="40.6668" x2="25.0392" y2="40.3594" gradientUnits="userSpaceOnUse">
<stop stop-color="#E7B051"/>
<stop offset="0.27" stop-color="#A66C00"/>
<stop offset="0.51" stop-color="#F3B233"/>
<stop offset="0.7" stop-color="#BB7E03"/>
<stop offset="1" stop-color="#E7BA57"/>
</linearGradient>
</defs>
</svg>
