<svg width="28" height="29" viewBox="0 0 28 29" fill="none" xmlns="http://www.w3.org/2000/svg">
<path d="M27.4559 0.895909C27.821 1.26094 27.8927 1.66448 27.8976 2.16643C27.8969 2.24325 27.8963 2.32006 27.8956 2.39688C27.8959 2.47966 27.8963 2.56244 27.8968 2.64522C27.8978 2.87155 27.8971 3.09786 27.8962 3.32419C27.8955 3.56875 27.8963 3.8133 27.8969 4.05786C27.8979 4.5366 27.8975 5.01533 27.8965 5.49407C27.8957 5.88345 27.8955 6.27284 27.8957 6.66222C27.8957 6.71771 27.8958 6.77319 27.8958 6.83036C27.8958 6.94309 27.8959 7.05583 27.896 7.16856C27.8964 8.16512 27.8955 9.16168 27.8939 10.1582C27.8923 11.1238 27.8919 12.0894 27.8928 13.055C27.8937 14.1074 27.8939 15.1599 27.893 16.2124C27.8929 16.3248 27.8928 16.4373 27.8927 16.5497C27.8926 16.605 27.8926 16.6603 27.8925 16.7173C27.8922 17.1057 27.8924 17.4941 27.8927 17.8825C27.8932 18.3566 27.8928 18.8307 27.8914 19.3048C27.8908 19.5464 27.8904 19.7879 27.891 20.0295C27.8916 20.2513 27.8911 20.473 27.8898 20.6948C27.8896 20.7744 27.8896 20.854 27.8901 20.9336C27.8983 22.3612 27.3556 23.6444 26.3589 24.667C25.2095 25.7613 23.8406 26.0945 22.2991 26.0575C21.2097 26.0074 20.1546 25.4596 19.3574 24.7418C19.3154 24.7049 19.2735 24.6681 19.2303 24.6302C18.2746 23.7398 17.7835 22.4531 17.7234 21.1643C17.6919 19.9025 18.0873 18.6155 18.9554 17.679C19.0519 17.579 19.15 17.4808 19.2484 17.3826C19.2801 17.347 19.3118 17.3114 19.3444 17.2748C20.1203 16.4188 21.3837 15.9931 22.506 15.9163C23.5458 15.8689 24.343 16.1186 25.2993 16.5649C25.2993 13.8845 25.2993 11.2041 25.2993 8.4425C24.2262 8.59597 23.1532 8.74944 22.0477 8.90756C21.37 9.00445 20.6922 9.10135 20.0145 9.19822C19.6587 9.24908 19.3028 9.29995 18.947 9.35082C18.9024 9.35719 18.8578 9.36357 18.8119 9.37014C18.091 9.47319 17.3701 9.57629 16.6493 9.67941C15.91 9.78517 15.1707 9.89088 14.4313 9.99653C13.9748 10.0618 13.5183 10.127 13.0618 10.1924C12.7491 10.2371 12.4364 10.2818 12.1237 10.3265C11.9431 10.3523 11.7624 10.3781 11.5818 10.404C11.3864 10.432 11.1909 10.4599 10.9954 10.4878C10.9378 10.496 10.8802 10.5043 10.8209 10.5128C10.7428 10.524 10.7428 10.524 10.6632 10.5353C10.618 10.5417 10.5728 10.5482 10.5263 10.5549C10.4173 10.5685 10.4173 10.5685 10.3083 10.5685C10.3084 10.6354 10.3085 10.7023 10.3086 10.7712C10.311 12.3624 10.3128 13.9537 10.3139 15.5449C10.314 15.7411 10.3141 15.9373 10.3143 16.1335C10.3143 16.1726 10.3144 16.2117 10.3144 16.2519C10.3149 16.8828 10.3157 17.5138 10.3167 18.1447C10.3177 18.793 10.3183 19.4412 10.3186 20.0895C10.3187 20.4533 10.319 20.817 10.3198 21.1808C10.3206 21.5237 10.3208 21.8666 10.3206 22.2095C10.3207 22.3349 10.3209 22.4602 10.3213 22.5855C10.327 24.3658 10.0415 25.8347 8.77514 27.1744C7.73034 28.1815 6.45783 28.5883 5.02638 28.5804C3.6921 28.5509 2.52268 28.0084 1.56244 27.0858C0.456369 25.922 0.123722 24.5589 0.161535 22.9945C0.211667 21.9101 0.766773 20.8539 1.47726 20.0537C1.51008 20.0164 1.5429 19.9791 1.57671 19.9406C2.50567 18.9493 3.82199 18.4778 5.15383 18.4202C5.51536 18.4153 5.8649 18.4629 6.21986 18.5273C6.27727 18.5374 6.33468 18.5476 6.39383 18.558C6.71849 18.6272 7.00512 18.7454 7.30287 18.8878C7.34043 18.9056 7.37798 18.9233 7.41667 18.9416C7.50844 18.985 7.60008 19.0287 7.6917 19.0725C7.69171 19.0409 7.69172 19.0094 7.69174 18.977C7.69247 17.1083 7.69463 15.2397 7.69862 13.371C7.69909 13.1465 7.69956 12.922 7.70002 12.6976C7.70011 12.6529 7.7002 12.6082 7.7003 12.5621C7.70175 11.839 7.70224 11.1158 7.70239 10.3927C7.70255 9.6504 7.70375 8.90812 7.7059 8.16584C7.7072 7.70799 7.70769 7.25014 7.70715 6.79229C7.70686 6.47811 7.70758 6.16395 7.70907 5.84979C7.7099 5.66864 7.71015 5.48755 7.7095 5.3064C7.70887 5.10963 7.70991 4.91293 7.71137 4.71616C7.71078 4.65942 7.7102 4.60267 7.7096 4.54421C7.71543 4.1199 7.8133 3.73729 8.12531 3.43218C8.79033 2.90367 10.017 2.93996 10.8287 2.82399C11.0324 2.79483 11.236 2.76542 11.4397 2.73604C11.8836 2.67205 12.3276 2.60841 12.7716 2.54483C13.0494 2.50506 13.3271 2.46522 13.6048 2.42536C14.3753 2.31479 15.1459 2.2043 15.9164 2.09412C15.9902 2.08357 15.9902 2.08357 16.0654 2.07282C16.1651 2.05857 16.2647 2.04432 16.3644 2.03007C16.4138 2.023 16.4633 2.01593 16.5143 2.00864C16.5885 1.99802 16.5885 1.99802 16.6643 1.98718C17.4671 1.87238 18.2698 1.75702 19.0725 1.6414C19.8986 1.52242 20.7248 1.4039 21.5511 1.28583C22.0142 1.21965 22.4773 1.15328 22.9403 1.0864C23.3344 1.02948 23.7285 0.972986 24.1227 0.917032C24.3235 0.888523 24.5242 0.859825 24.7249 0.830583C26.8432 0.52228 26.8432 0.52228 27.4559 0.895909Z" fill="url(#paint0_linear_836_5730)"/>
<defs>
<linearGradient id="paint0_linear_836_5730" x1="4.31952" y1="42.5673" x2="25.3271" y2="42.2549" gradientUnits="userSpaceOnUse">
<stop stop-color="#E7B051"/>
<stop offset="0.27" stop-color="#A66C00"/>
<stop offset="0.51" stop-color="#F3B233"/>
<stop offset="0.7" stop-color="#BB7E03"/>
<stop offset="1" stop-color="#E7BA57"/>
</linearGradient>
</defs>
</svg>
