<svg width="221" height="66" viewBox="0 0 221 66" fill="none" xmlns="http://www.w3.org/2000/svg">
<g clip-path="url(#clip0_1853_4051)">
<path d="M212.238 1.33301H8.7882C4.66758 1.33301 1.32715 4.68615 1.32715 8.82247V57.2097C1.32715 61.346 4.66758 64.6991 8.7882 64.6991H212.238C216.359 64.6991 219.699 61.346 219.699 57.2097V8.82247C219.699 4.68615 216.359 1.33301 212.238 1.33301Z" fill="black"/>
<path d="M212.238 65.5107H8.78825C4.21861 65.5107 0.508301 61.7863 0.508301 57.1993V8.82222C0.508301 4.23518 4.21861 0.510742 8.78825 0.510742H212.238C216.808 0.510742 220.518 4.23518 220.518 8.82222V57.1993C220.518 61.7863 216.808 65.5107 212.238 65.5107ZM8.78825 2.15477C5.12849 2.15477 2.14609 5.14852 2.14609 8.82222V57.1993C2.14609 60.873 5.12849 63.8667 8.78825 63.8667H212.238C215.898 63.8667 218.881 60.873 218.881 57.1993V8.82222C218.881 5.13838 215.898 2.15477 212.238 2.15477H8.78825Z" fill="white"/>
<path d="M73.7538 18.9907L72.8338 22.0149H70.832L74.239 11.3389H76.716L80.1735 22.0149H78.0909L77.1305 18.9907H73.7538ZM76.7968 17.5192L75.9577 14.8908C75.7555 14.2413 75.5837 13.5106 75.4219 12.8916H75.3916C75.2298 13.5106 75.0782 14.2514 74.8861 14.8908L74.0672 17.5192H76.7968Z" fill="white"/>
<path d="M83.0752 14.3027L84.3187 18.22C84.5411 18.8999 84.6927 19.519 84.8444 20.1482H84.8949C85.0365 19.519 85.2083 18.9101 85.4206 18.22L86.654 14.3027H88.6861L85.7543 22.0155H83.8435L80.9824 14.3027H83.0853H83.0752Z" fill="white"/>
<path d="M96.4199 20.1678C96.4199 20.868 96.4502 21.5479 96.5412 22.0249H94.7922L94.6507 21.1724H94.6001C94.1452 21.7712 93.3364 22.1974 92.3254 22.1974C90.7786 22.1974 89.9092 21.071 89.9092 19.9039C89.9092 17.9757 91.6279 16.971 94.4687 16.9913V16.8695C94.4687 16.3621 94.2665 15.5198 92.9017 15.5198C92.1435 15.5198 91.3549 15.7532 90.8393 16.0881L90.4652 14.8196C91.0314 14.4745 92.0322 14.1396 93.2454 14.1396C95.7122 14.1396 96.4199 15.7126 96.4199 17.4074V20.1779V20.1678ZM94.5294 18.2497C93.1544 18.2294 91.8503 18.5237 91.8503 19.6908C91.8503 20.4519 92.3355 20.7969 92.9522 20.7969C93.7408 20.7969 94.2968 20.2895 94.4788 19.7314C94.5294 19.5893 94.5294 19.4472 94.5294 19.3051V18.2396V18.2497Z" fill="white"/>
<path d="M100.13 13.1968C99.4832 13.1968 99.0586 12.7198 99.0586 12.1515C99.0586 11.5528 99.5034 11.0859 100.15 11.0859C100.797 11.0859 101.222 11.5426 101.242 12.1515C101.242 12.7198 100.818 13.1968 100.15 13.1968H100.13ZM99.1698 22.0157V14.303H101.111V22.0157H99.1698Z" fill="white"/>
<path d="M103.901 10.7607H105.842V22.0254H103.901V10.7607Z" fill="white"/>
<path d="M114.618 20.1678C114.618 20.868 114.648 21.5479 114.739 22.0249H112.99L112.848 21.1724H112.798C112.343 21.7712 111.534 22.1974 110.523 22.1974C108.976 22.1974 108.107 21.071 108.107 19.9039C108.107 17.9757 109.826 16.971 112.666 16.9913V16.8695C112.666 16.3621 112.464 15.5198 111.11 15.5198C110.351 15.5198 109.563 15.7532 109.047 16.0881L108.673 14.8196C109.239 14.4745 110.24 14.1396 111.453 14.1396C113.91 14.1396 114.628 15.7126 114.628 17.4074V20.1779L114.618 20.1678ZM112.727 18.2497C111.352 18.2294 110.048 18.5237 110.048 19.6908C110.048 20.4519 110.533 20.7969 111.15 20.7969C111.939 20.7969 112.495 20.2895 112.677 19.7314C112.727 19.5893 112.727 19.4472 112.727 19.3051V18.2396V18.2497Z" fill="white"/>
<path d="M117.358 10.7607H119.299V15.3681H119.329C119.804 14.6273 120.643 14.13 121.796 14.13C123.676 14.13 125.011 15.703 125.001 18.0472C125.001 20.8177 123.252 22.1979 121.513 22.1979C120.522 22.1979 119.632 21.8123 119.086 20.8685H119.056L118.965 22.0254H117.307C117.337 21.4977 117.368 20.6452 117.368 19.8739V10.7607H117.358ZM119.299 18.8388C119.299 19.0012 119.319 19.1534 119.349 19.2955C119.552 20.087 120.229 20.6554 121.068 20.6554C122.281 20.6554 123.029 19.6913 123.029 18.1183C123.029 16.7584 122.382 15.6522 121.088 15.6522C120.3 15.6522 119.572 16.2205 119.37 17.073C119.339 17.2151 119.309 17.3876 119.309 17.5804V18.8287L119.299 18.8388Z" fill="white"/>
<path d="M127.285 10.7607H129.226V22.0254H127.285V10.7607Z" fill="white"/>
<path d="M133.402 18.7068C133.452 20.0971 134.534 20.706 135.767 20.706C136.667 20.706 137.294 20.5639 137.901 20.361L138.184 21.6904C137.516 21.9745 136.607 22.1775 135.505 22.1775C133.007 22.1775 131.542 20.6451 131.542 18.2805C131.542 16.1393 132.836 14.1299 135.302 14.1299C137.769 14.1299 138.618 16.19 138.618 17.8848C138.618 18.2501 138.588 18.5343 138.558 18.7068H133.412H133.402ZM136.778 17.3469C136.799 16.6365 136.475 15.4593 135.181 15.4593C133.978 15.4593 133.472 16.5553 133.402 17.3469H136.778Z" fill="white"/>
<path d="M148.193 22.1978C146.029 22.1978 144.341 20.706 144.341 18.2197C144.341 15.7333 145.999 14.1299 148.314 14.1299C150.629 14.1299 152.135 15.7435 152.135 18.0877C152.135 20.9191 150.144 22.1877 148.203 22.1877H148.183L148.193 22.1978ZM148.253 20.7872C149.355 20.7872 150.134 19.7115 150.134 18.1385C150.134 16.9308 149.598 15.5405 148.274 15.5405C146.949 15.5405 146.343 16.8902 146.343 18.1689C146.343 19.6607 147.081 20.7872 148.233 20.7872H148.253Z" fill="white"/>
<path d="M154.42 16.6057C154.42 15.7228 154.39 14.9718 154.359 14.3122H156.048L156.139 15.4691H156.189C156.533 14.8703 157.372 14.1396 158.656 14.1396C159.94 14.1396 161.386 15.0124 161.386 17.448V22.0249H159.445V17.6713C159.445 16.5651 159.03 15.7228 157.979 15.7228C157.21 15.7228 156.675 16.2809 156.462 16.8594C156.402 17.0218 156.371 17.2552 156.371 17.4784V22.0249H154.43V16.6057H154.42Z" fill="white"/>
<path d="M170.323 12.3236V14.3025H172.173V15.7639H170.323V19.1534C170.323 20.1074 170.576 20.5742 171.314 20.5742C171.657 20.5742 171.85 20.5539 172.072 20.493L172.102 21.9645C171.819 22.0762 171.293 22.1675 170.697 22.1675C169.969 22.1675 169.393 21.9341 169.029 21.5383C168.604 21.0918 168.412 20.3814 168.412 19.3666V15.7538H167.32V14.2924H168.412V12.8513L170.323 12.3135V12.3236Z" fill="white"/>
<path d="M174.327 10.7607H176.268V15.3579H176.298C176.53 14.9926 176.864 14.6881 177.258 14.4852C177.653 14.2619 178.108 14.1401 178.603 14.1401C179.907 14.1401 181.282 15.0129 181.282 17.4789V22.0254H179.341V17.6819C179.341 16.5757 178.926 15.7131 177.855 15.7131C177.097 15.7131 176.561 16.2205 176.338 16.8091C176.278 16.9817 176.257 17.1948 176.257 17.3977V22.0254H174.316V10.7607H174.327Z" fill="white"/>
<path d="M185.417 18.7068C185.467 20.0971 186.549 20.706 187.783 20.706C188.682 20.706 189.309 20.5639 189.916 20.361L190.199 21.6904C189.532 21.9745 188.622 22.1775 187.52 22.1775C185.023 22.1775 183.557 20.6451 183.557 18.2805C183.557 16.1393 184.851 14.1299 187.317 14.1299C189.784 14.1299 190.634 16.19 190.634 17.8848C190.634 18.2501 190.603 18.5343 190.573 18.7068H185.427H185.417ZM188.794 17.3469C188.814 16.6365 188.49 15.4593 187.196 15.4593C185.993 15.4593 185.488 16.5553 185.417 17.3469H188.794Z" fill="white"/>
<path d="M49.6117 32.3769C49.5612 27.0896 53.9185 24.5221 54.1207 24.4003C51.6539 20.7875 47.8223 20.2902 46.4777 20.2496C43.2627 19.9147 40.1489 22.1778 38.5111 22.1778C36.8733 22.1778 34.3155 20.2801 31.6061 20.3308C28.1081 20.3917 24.8426 22.4214 23.0431 25.5674C19.3429 32.0014 22.1029 41.4495 25.6514 46.6556C27.4308 49.2028 29.5033 52.0443 32.2127 51.9428C34.8615 51.8312 35.8522 50.2481 39.0571 50.2481C42.2619 50.2481 43.1616 51.9428 45.9317 51.882C48.7827 51.8312 50.5722 49.3246 52.2807 46.757C54.333 43.8343 55.1519 40.9624 55.1923 40.8203C55.1216 40.8 49.6623 38.7094 49.6016 32.3667" fill="white"/>
<path d="M44.3747 16.8399C45.8002 15.0436 46.7808 12.608 46.5079 10.1318C44.4455 10.2232 41.8573 11.5627 40.3712 13.3184C39.0569 14.861 37.8741 17.398 38.1774 19.7727C40.5026 19.9453 42.8784 18.5955 44.3747 16.8297" fill="white"/>
<path d="M87.9684 51.5373H84.2682L82.2462 45.1439H75.2098L73.2788 51.5373H69.6797L76.6555 29.7793H80.9623L87.9684 51.5373ZM81.6396 42.4647L79.8097 36.7816C79.6177 36.2032 79.2537 34.8332 78.7179 32.6817H78.6572C78.4449 33.6052 78.1012 34.9752 77.626 36.7816L75.8265 42.4647H81.6497H81.6396Z" fill="white"/>
<path d="M105.913 43.4994C105.913 46.1684 105.196 48.2793 103.76 49.8218C102.476 51.202 100.879 51.8819 98.9679 51.8819C96.9055 51.8819 95.4295 51.1411 94.5297 49.6595H94.4691V57.9202H90.9913V41.0029C90.9913 39.3285 90.9509 37.6032 90.8599 35.8374H93.913L94.1051 38.3238H94.1759C95.3284 36.4463 97.0875 35.5127 99.4431 35.5127C101.283 35.5127 102.83 36.2434 104.053 37.7047C105.287 39.1661 105.903 41.0943 105.903 43.4791M102.365 43.6111C102.365 42.0888 102.021 40.8203 101.334 39.8359C100.586 38.8007 99.5745 38.2832 98.3108 38.2832C97.4515 38.2832 96.673 38.5673 95.9754 39.1356C95.2779 39.7141 94.8229 40.4549 94.6106 41.3784C94.4994 41.8148 94.4488 42.1598 94.4488 42.444V45.0623C94.4488 46.1989 94.7926 47.163 95.4902 47.9444C96.1877 48.736 97.0976 49.1216 98.2097 49.1216C99.5139 49.1216 100.535 48.6243 101.263 47.6095C101.991 46.5947 102.355 45.2652 102.355 43.6009" fill="white"/>
<path d="M123.889 43.4994C123.889 46.1684 123.171 48.2793 121.735 49.8218C120.451 51.202 118.854 51.8819 116.943 51.8819C114.891 51.8819 113.405 51.1411 112.505 49.6595H112.444V57.9202H108.977V41.0029C108.977 39.3285 108.936 37.6032 108.845 35.8374H111.898L112.09 38.3238H112.161C113.314 36.4463 115.073 35.5127 117.428 35.5127C119.268 35.5127 120.805 36.2434 122.039 37.7047C123.272 39.1661 123.889 41.0943 123.889 43.4791M120.35 43.6111C120.35 42.0888 120.006 40.8203 119.319 39.8359C118.571 38.8007 117.56 38.2832 116.296 38.2832C115.437 38.2832 114.658 38.5673 113.961 39.1356C113.263 39.7141 112.808 40.4549 112.596 41.3784C112.485 41.8148 112.434 42.1598 112.434 42.444V45.0623C112.434 46.1989 112.778 47.163 113.476 47.9444C114.173 48.736 115.073 49.1216 116.195 49.1216C117.499 49.1216 118.52 48.6243 119.248 47.6095C119.976 46.5947 120.34 45.2652 120.34 43.6009" fill="white"/>
<path d="M143.987 45.4379C143.987 47.2849 143.35 48.797 142.056 49.9539C140.641 51.2225 138.679 51.8618 136.152 51.8618C133.816 51.8618 131.946 51.4153 130.531 50.5121L131.34 47.6097C132.866 48.5332 134.534 49 136.364 49C137.668 49 138.689 48.7057 139.417 48.1171C140.145 47.5183 140.509 46.7268 140.509 45.7424C140.509 44.8595 140.206 44.1186 139.609 43.5097C139.013 42.9008 138.012 42.3427 136.617 41.8251C132.826 40.4043 130.925 38.3239 130.925 35.5839C130.925 33.7978 131.592 32.3263 132.917 31.1897C134.241 30.0429 136.01 29.4746 138.224 29.4746C140.196 29.4746 141.834 29.8197 143.138 30.5097L142.268 33.3513C141.045 32.6815 139.66 32.3466 138.123 32.3466C136.9 32.3466 135.95 32.651 135.262 33.2498C134.686 33.7876 134.393 34.4473 134.393 35.2186C134.393 36.0812 134.726 36.7915 135.383 37.3497C135.96 37.8673 137.011 38.4254 138.538 39.0343C140.398 39.7853 141.773 40.6682 142.652 41.683C143.532 42.6979 143.967 43.9563 143.967 45.4582" fill="white"/>
<path d="M155.461 38.4658H151.64V46.0872C151.64 48.0255 152.317 48.9896 153.672 48.9896C154.289 48.9896 154.804 48.9389 155.209 48.8272L155.3 51.476C154.622 51.7297 153.712 51.8616 152.6 51.8616C151.225 51.8616 150.154 51.4455 149.385 50.6032C148.617 49.7609 148.223 48.3503 148.223 46.3713V38.4658H145.938V35.8475H148.223V32.9756L151.63 31.9404V35.8475H155.451V38.4658H155.461Z" fill="white"/>
<path d="M172.729 43.5707C172.729 45.986 172.042 47.9649 170.677 49.5074C169.241 51.1007 167.331 51.8923 164.955 51.8923C162.579 51.8923 160.83 51.1312 159.475 49.5988C158.11 48.0765 157.433 46.1483 157.433 43.8244C157.433 41.3888 158.131 39.3997 159.536 37.8572C160.941 36.3045 162.832 35.5332 165.208 35.5332C167.583 35.5332 169.342 36.2943 170.738 37.8267C172.072 39.3185 172.729 41.2264 172.729 43.5707ZM169.13 43.6823C169.13 42.2412 168.817 40.993 168.2 39.9579C167.472 38.7096 166.431 38.0804 165.086 38.0804C163.742 38.0804 162.63 38.7096 161.902 39.9579C161.275 40.993 160.972 42.2514 160.972 43.7432C160.972 45.235 161.275 46.4325 161.902 47.4676C162.65 48.7159 163.701 49.3451 165.056 49.3451C166.411 49.3451 167.422 48.7057 168.17 47.4372C168.817 46.3818 169.13 45.1335 169.13 43.6823Z" fill="white"/>
<path d="M184.012 38.9227C183.668 38.8619 183.304 38.8314 182.92 38.8314C181.697 38.8314 180.756 39.2982 180.089 40.2217C179.513 41.0437 179.22 42.0687 179.22 43.317V51.5473H175.752L175.782 40.8002C175.782 38.9938 175.742 37.3498 175.651 35.858H178.674L178.805 38.8619H178.896C179.26 37.8267 179.846 36.9946 180.635 36.3755C181.403 35.8174 182.242 35.5332 183.142 35.5332C183.466 35.5332 183.749 35.5535 184.012 35.5941V38.9227Z" fill="white"/>
<path d="M199.54 42.9518C199.54 43.581 199.5 44.0986 199.419 44.5349H189.006C189.046 46.0876 189.552 47.2648 190.512 48.0868C191.392 48.8175 192.524 49.1829 193.919 49.1829C195.456 49.1829 196.861 48.9393 198.135 48.442L198.681 50.8675C197.205 51.517 195.456 51.8417 193.434 51.8417C191.018 51.8417 189.107 51.1212 187.732 49.6903C186.357 48.2594 185.66 46.3413 185.66 43.926C185.66 41.5107 186.307 39.5927 187.591 38.0197C188.935 36.3452 190.765 35.5029 193.05 35.5029C195.335 35.5029 197.013 36.3452 198.166 38.0197C199.086 39.3593 199.54 41.0033 199.54 42.9619M196.235 42.0587C196.255 41.0236 196.032 40.1306 195.557 39.3796C194.961 38.4155 194.031 37.9284 192.787 37.9284C191.655 37.9284 190.735 38.4054 190.027 39.3491C189.451 40.1001 189.107 41.0033 189.006 42.0587H196.235Z" fill="white"/>
</g>
<defs>
<clipPath id="clip0_1853_4051">
<rect width="220" height="65" fill="white" transform="translate(0.508301 0.510742)"/>
</clipPath>
</defs>
</svg>
