<svg width="221" height="66" viewBox="0 0 221 66" fill="none" xmlns="http://www.w3.org/2000/svg">
<path d="M212.36 65.0104H8.65645C4.36963 65.0104 1.0083 61.649 1.0083 57.3622V8.47334C1.0083 4.18652 4.36963 0.825195 8.65645 0.825195H212.36C216.647 0.825195 220.008 4.18652 220.008 8.47334V57.3622C220.008 61.649 216.647 65.0104 212.36 65.0104Z" fill="#0B0C0D" stroke="white"/>
<path d="M77.7529 16.9481C77.7529 18.2518 77.4269 19.3925 76.6121 20.2073C75.6344 21.1851 74.4936 21.674 73.0269 21.674C71.5603 21.674 70.4195 21.1851 69.4418 20.2073C68.464 19.2296 67.9751 18.0888 67.9751 16.6222C67.9751 15.1555 68.464 14.0148 69.4418 13.037C70.4195 12.0592 71.5603 11.5703 73.0269 11.5703C73.6788 11.5703 74.3307 11.7333 74.9825 12.0592C75.6344 12.3851 76.1232 12.7111 76.4492 13.1999L75.6344 14.0148C74.9825 13.1999 74.1677 12.874 73.0269 12.874C72.0492 12.874 71.0714 13.1999 70.4195 14.0148C69.6047 14.6666 69.2788 15.6444 69.2788 16.7851C69.2788 17.9259 69.6047 18.9036 70.4195 19.5555C71.2344 20.2073 72.0492 20.6962 73.0269 20.6962C74.1677 20.6962 74.9825 20.3703 75.7973 19.5555C76.2862 19.0666 76.6121 18.4148 76.6121 17.5999H73.0269V16.2962H77.7529V16.9481ZM85.2492 12.874H80.8492V15.9703H84.9232V17.1111H80.8492V20.2073H85.2492V21.5111H79.5455V11.7333H85.2492V12.874ZM90.6269 21.5111H89.3232V12.874H86.5529V11.7333H93.3973V12.874H90.6269V21.5111ZM98.1232 21.5111V11.7333H99.4269V21.5111H98.1232ZM104.968 21.5111H103.664V12.874H100.894V11.7333H107.575V12.874H104.805V21.5111H104.968ZM120.449 20.2073C119.471 21.1851 118.331 21.674 116.864 21.674C115.397 21.674 114.257 21.1851 113.279 20.2073C112.301 19.2296 111.812 18.0888 111.812 16.6222C111.812 15.1555 112.301 14.0148 113.279 13.037C114.257 12.0592 115.397 11.5703 116.864 11.5703C118.331 11.5703 119.471 12.0592 120.449 13.037C121.427 14.0148 121.916 15.1555 121.916 16.6222C121.916 18.0888 121.427 19.2296 120.449 20.2073ZM114.257 19.3925C114.908 20.0444 115.886 20.5333 116.864 20.5333C117.842 20.5333 118.82 20.2073 119.471 19.3925C120.123 18.7407 120.612 17.7629 120.612 16.6222C120.612 15.4814 120.286 14.5036 119.471 13.8518C118.82 13.1999 117.842 12.7111 116.864 12.7111C115.886 12.7111 114.908 13.037 114.257 13.8518C113.605 14.5036 113.116 15.4814 113.116 16.6222C113.116 17.7629 113.442 18.7407 114.257 19.3925ZM123.708 21.5111V11.7333H125.175L129.901 19.3925V11.7333H131.205V21.5111H129.901L124.849 13.5259V21.5111H123.708Z" fill="white" stroke="white" stroke-width="1.18519" stroke-miterlimit="10"/>
<path d="M111.486 35.8507C107.575 35.8507 104.479 38.784 104.479 42.8581C104.479 46.7692 107.575 49.8655 111.486 49.8655C115.397 49.8655 118.494 46.9321 118.494 42.8581C118.494 38.621 115.397 35.8507 111.486 35.8507ZM111.486 46.9321C109.368 46.9321 107.575 45.1396 107.575 42.6951C107.575 40.2507 109.368 38.4581 111.486 38.4581C113.605 38.4581 115.397 40.0877 115.397 42.6951C115.397 45.1396 113.605 46.9321 111.486 46.9321ZM96.3308 35.8507C92.4197 35.8507 89.3234 38.784 89.3234 42.8581C89.3234 46.7692 92.4197 49.8655 96.3308 49.8655C100.242 49.8655 103.338 46.9321 103.338 42.8581C103.338 38.621 100.242 35.8507 96.3308 35.8507ZM96.3308 46.9321C94.2123 46.9321 92.4197 45.1396 92.4197 42.6951C92.4197 40.2507 94.2123 38.4581 96.3308 38.4581C98.4493 38.4581 100.242 40.0877 100.242 42.6951C100.242 45.1396 98.4493 46.9321 96.3308 46.9321ZM78.2419 37.9692V40.9025H85.2493C85.0863 42.5321 84.4345 43.8359 83.6197 44.6507C82.6419 45.6284 81.0123 46.7692 78.2419 46.7692C73.8419 46.7692 70.5826 43.347 70.5826 38.947C70.5826 34.547 74.0049 31.1247 78.2419 31.1247C80.5234 31.1247 82.316 32.1025 83.6197 33.2433L85.7382 31.1247C83.9456 29.4951 81.6641 28.1914 78.4048 28.1914C72.5382 28.1914 67.4863 33.0803 67.4863 38.947C67.4863 44.8136 72.5382 49.7025 78.4048 49.7025C81.6641 49.7025 83.9456 48.7247 85.9011 46.6062C87.8567 44.6507 88.5086 41.8803 88.5086 39.7618C88.5086 39.1099 88.5086 38.4581 88.3456 37.9692H78.2419ZM152.227 40.2507C151.575 38.621 149.946 35.8507 146.36 35.8507C142.775 35.8507 139.842 38.621 139.842 42.8581C139.842 46.7692 142.775 49.8655 146.686 49.8655C149.783 49.8655 151.738 47.9099 152.39 46.7692L150.109 45.1396C149.294 46.2803 148.316 47.0951 146.686 47.0951C145.057 47.0951 144.079 46.4433 143.264 44.9766L152.553 41.0655L152.227 40.2507ZM142.775 42.5321C142.775 39.9247 144.894 38.4581 146.36 38.4581C147.501 38.4581 148.642 39.1099 148.968 39.9247L142.775 42.5321ZM135.116 49.2136H138.212V28.8433H135.116V49.2136ZM130.227 37.3173C129.412 36.5025 128.109 35.6877 126.479 35.6877C123.057 35.6877 119.797 38.784 119.797 42.6951C119.797 46.6062 122.894 49.5396 126.479 49.5396C128.109 49.5396 129.412 48.7247 130.064 47.9099H130.227V48.8877C130.227 51.4951 128.76 52.9618 126.479 52.9618C124.686 52.9618 123.383 51.6581 123.057 50.5173L120.449 51.6581C121.264 53.4507 123.22 55.7321 126.642 55.7321C130.227 55.7321 133.16 53.6136 133.16 48.5618V36.1766H130.227V37.3173ZM126.642 46.9321C124.523 46.9321 122.731 45.1396 122.731 42.6951C122.731 40.2507 124.523 38.4581 126.642 38.4581C128.76 38.4581 130.39 40.2507 130.39 42.6951C130.39 45.1396 128.76 46.9321 126.642 46.9321ZM166.405 28.8433H159.072V49.2136H162.168V41.5544H166.405C169.827 41.5544 173.086 39.1099 173.086 35.1988C173.086 31.2877 169.827 28.8433 166.405 28.8433ZM166.568 38.621H162.168V31.6136H166.568C168.849 31.6136 170.153 33.5692 170.153 35.0358C169.99 36.8284 168.686 38.621 166.568 38.621ZM185.309 35.6877C183.027 35.6877 180.746 36.6655 179.931 38.784L182.701 39.9247C183.353 38.784 184.331 38.4581 185.472 38.4581C187.101 38.4581 188.568 39.4359 188.731 41.0655V41.2284C188.242 40.9025 186.938 40.4136 185.634 40.4136C182.701 40.4136 179.768 42.0433 179.768 44.9766C179.768 47.747 182.212 49.5396 184.82 49.5396C186.938 49.5396 187.916 48.5618 188.731 47.584H188.894V49.2136H191.827V41.3914C191.501 37.8062 188.731 35.6877 185.309 35.6877ZM184.983 46.9321C184.005 46.9321 182.538 46.4433 182.538 45.1396C182.538 43.5099 184.331 43.021 185.797 43.021C187.101 43.021 187.753 43.347 188.568 43.6729C188.242 45.6284 186.612 46.9321 184.983 46.9321ZM202.094 36.1766L198.672 44.9766H198.509L194.923 36.1766H191.664L197.042 48.5618L193.946 55.4062H197.042L205.353 36.1766H202.094ZM174.716 49.2136H177.812V28.8433H174.716V49.2136Z" fill="white"/>
<path d="M17.3047 14.8274C17.3047 14.181 17.381 13.6831 17.5343 13.3239L37.4442 32.9178L17.7978 52.5642C17.5101 52.1697 17.3047 51.5756 17.3047 50.8422V14.8274Z" fill="white" stroke="#0B0C0D"/>
<path d="M38.3271 32.9609L44.5477 26.7403L52.4087 31.2323C53.4591 31.8325 53.8679 32.5495 53.8679 33.1612C53.8679 33.7719 53.4604 34.4874 52.4138 35.0871L44.5988 39.3072L38.3271 33.0355V32.9609Z" fill="white" stroke="#0B0C0D"/>
<path d="M18.215 53.236L37.8269 33.6241L43.8563 39.6535L20.6523 53.0038C19.9671 53.3056 19.4018 53.4356 18.9411 53.4192C18.6717 53.4095 18.4318 53.35 18.215 53.236Z" fill="white" stroke="#0B0C0D"/>
<path d="M20.6338 12.9824C20.6345 12.9827 20.6352 12.9831 20.6359 12.9835L43.8539 26.1828L37.8255 32.2111L18.2075 12.7501C18.4371 12.6136 18.6867 12.535 18.9588 12.5155C19.405 12.4837 19.9592 12.6079 20.6338 12.9824Z" fill="white" stroke="#0B0C0D"/>
<path opacity="0.2" d="M44.5084 39.5977L20.8788 52.9606C19.5751 53.7754 18.4343 53.6125 17.6195 52.9606L17.4565 53.1236L17.6195 53.2865C18.4343 53.9384 19.5751 54.1014 20.8788 53.2865L44.5084 39.5977Z" fill="#0B0C0D"/>
<path opacity="0.12" d="M17.4565 52.9614C16.9676 52.4725 16.8047 51.6577 16.8047 50.68V50.8429C16.8047 51.8207 17.1306 52.6355 17.6195 53.1244V52.9614H17.4565ZM52.6565 35.0355L44.5084 39.5985L44.6714 39.7614L52.6565 35.1985C53.7973 34.5466 54.2862 33.7318 54.2862 32.917C54.2862 33.7318 53.6343 34.3837 52.6565 35.0355Z" fill="#0B0C0D"/>
<path opacity="0.25" d="M20.8788 12.7096L52.6565 30.7985C53.6343 31.4503 54.2862 32.1022 54.2862 32.917C54.2862 32.1022 53.7973 31.2874 52.6565 30.6355L20.8788 12.5466C18.5973 11.2429 16.8047 12.2207 16.8047 14.8281V14.9911C16.8047 12.5466 18.5973 11.4059 20.8788 12.7096Z" fill="white"/>
</svg>
