<svg width="49" height="43" viewBox="0 0 49 43" fill="none" xmlns="http://www.w3.org/2000/svg">
<path d="M36.3679 5.95215C31.5892 5.95215 26.8051 7.91514 24.4994 11.6618C22.1938 7.91522 17.4096 5.95215 12.6309 5.95215C8.16862 5.95215 3.65689 7.57404 0.419922 10.4025L2.44988 12.1762L24.4994 18.0747L46.5489 12.1762L48.5789 10.4025C45.3418 7.57404 40.8302 5.95215 36.3679 5.95215Z" fill="#ECECF1"/>
<path d="M48.5794 10.4025C45.3424 7.57404 40.8308 5.95215 36.3685 5.95215C31.5898 5.95215 26.8057 7.91514 24.5 11.6618V18.0747L46.5495 12.1762L48.5794 10.4025Z" fill="#CFDDE2"/>
<path d="M24.5 0C23.7065 0 23.0645 0.561034 23.0645 1.25436V3.76308C23.0645 4.45641 23.7065 5.01745 24.5 5.01745C25.2935 5.01745 25.9355 4.45641 25.9355 3.76308V1.25436C25.9355 0.561034 25.2935 0 24.5 0Z" fill="#FFE470"/>
<path d="M47.5645 10.0352C39.8273 10.0352 31.9862 11.6325 25.0706 14.6557L24.5 14.9047L23.9294 14.6557C17.0138 11.6325 9.17267 10.0352 1.43555 10.0352C0.642072 10.0352 0 10.5962 0 11.2895V36.544C0 37.2373 0.642072 37.7984 1.43555 37.7984C8.72822 37.7984 16.125 39.3051 22.6453 42.1543L23.8579 42.6835C24.0623 42.7721 24.2816 42.8152 24.5 42.8152C24.7204 42.8152 24.9399 42.7712 25.1421 42.6835L26.3547 42.1543C32.875 39.3051 40.2718 37.7984 47.5645 37.7984C48.3579 37.7984 49 37.2373 49 36.544V11.2895C49 10.5962 48.3579 10.0352 47.5645 10.0352Z" fill="#704C55"/>
<path d="M25.1421 42.6835L26.3547 42.1543C32.875 39.3051 40.2718 37.7984 47.5645 37.7984C48.3579 37.7984 49 37.2373 49 36.544V11.2895C49 10.5962 48.3579 10.0352 47.5645 10.0352C39.8273 10.0352 31.9862 11.6325 25.0706 14.6557L24.5 14.9047V42.8151C24.7204 42.8151 24.9399 42.7712 25.1421 42.6835Z" fill="#4B2746"/>
<path d="M17.7428 4.64994L14.8717 2.14122C14.311 1.65126 14.311 0.857419 14.8717 0.367465C15.4324 -0.122488 16.3409 -0.122488 16.9017 0.367465L19.7728 2.87619C20.3335 3.36614 20.3335 4.15999 19.7728 4.64994C19.2119 5.13989 18.3035 5.13998 17.7428 4.64994Z" fill="#FFE470"/>
<path d="M25.9355 3.76308V1.25436C25.9355 0.561034 25.2935 0 24.5 0V5.01745C25.2935 5.01745 25.9355 4.45641 25.9355 3.76308Z" fill="#FFC473"/>
<path d="M29.2272 4.64994C28.6665 4.15999 28.6665 3.36614 29.2272 2.87619L32.0983 0.367465C32.659 -0.122488 33.5675 -0.122488 34.1282 0.367465C34.689 0.857419 34.689 1.65126 34.1282 2.14122L31.2571 4.64994C30.6963 5.13989 29.7879 5.13998 29.2272 4.64994Z" fill="#FFC473"/>
<path d="M41.5575 20.4595C40.1681 20.6041 38.7907 20.8178 37.4205 21.0631V18.8989C37.4205 18.2056 36.7784 17.6445 35.9849 17.6445C35.1915 17.6445 34.5494 18.2056 34.5494 18.8989V21.6537C32.9222 22.0333 31.3112 22.4668 29.7352 22.9879C28.9936 23.2329 28.6193 23.9568 28.8998 24.6048C29.1826 25.2583 30.0171 25.5771 30.7503 25.3349C31.9965 24.9229 33.2682 24.5748 34.5494 24.2563V31.4425C34.5494 32.1358 35.1915 32.6969 35.9849 32.6969C36.7784 32.6969 37.4205 32.1358 37.4205 31.4425V23.6272C38.9005 23.3454 40.3918 23.1074 41.8967 22.9511C42.6832 22.869 43.2467 22.2454 43.1528 21.5571C43.0589 20.8698 42.3412 20.3676 41.5575 20.4595Z" fill="#FFE470"/>
<path d="M37.42 31.4425V23.6272C38.9001 23.3454 40.3913 23.1074 41.8962 22.9511C42.6827 22.869 43.2462 22.2454 43.1523 21.5571C43.0585 20.8698 42.3407 20.3676 41.557 20.4595C40.1676 20.6041 38.7901 20.8178 37.4199 21.0631V18.8989C37.4199 18.2056 36.7778 17.6445 35.9844 17.6445V32.6969C36.7779 32.6969 37.42 32.1358 37.42 31.4425Z" fill="#FFC473"/>
</svg>
